<?xml version="1.0" encoding="UTF-8"?>
<!DOCTYPE svg PUBLIC "-//W3C//DTD SVG 1.1//EN" "http://www.w3.org/Graphics/SVG/1.1/DTD/svg11.dtd">
<!-- Creator: CorelDRAW X7 -->
<svg xmlns="http://www.w3.org/2000/svg" xml:space="preserve" width="326.076mm" height="261.076mm" version="1.1" style="shape-rendering:geometricPrecision; text-rendering:geometricPrecision; image-rendering:optimizeQuality; fill-rule:evenodd; clip-rule:evenodd"
viewBox="0 0 26576 21279"
 xmlns:xlink="http://www.w3.org/1999/xlink">
 <defs>
  <style type="text/css">
   <![CDATA[
    .str0 {stroke:blue;stroke-width:6.21057}
    .str1 {stroke:red;stroke-width:6.21057}
    .fil0 {fill:none}
    .fil1 {fill:none;fill-rule:nonzero}
   ]]>
  </style>
 </defs>
 <g id="Ebene_x0020_1">
  <metadata id="CorelCorpID_0Corel-Layer"/>
  <polygon class="fil0 str0" points="18158,3 18769,3 18769,248 20053,248 20053,1715 19829,1715 19829,1959 19218,1959 19218,1715 17934,1715 17934,248 18158,248 "/>
  <polygon class="fil0 str0" points="18158,1715 18769,1715 18769,1959 20053,1959 20053,3426 19829,3426 19829,3671 19218,3671 19218,3426 17934,3426 17934,1959 18158,1959 "/>
  <polygon class="fil0 str0" points="18158,3426 18769,3426 18769,3671 20053,3671 20053,5138 19829,5138 19829,5382 19218,5382 19218,5138 17934,5138 17934,3671 18158,3671 "/>
  <polygon class="fil0 str0" points="18158,5138 18769,5138 18769,5382 20053,5382 20053,6849 19829,6849 19829,7094 19218,7094 19218,6849 17934,6849 17934,5382 18158,5382 "/>
  <polygon class="fil0 str0" points="22396,3 23007,3 23007,248 24291,248 24291,1715 24067,1715 24067,1959 23456,1959 23456,1715 22172,1715 22172,248 22396,248 "/>
  <polygon class="fil0 str0" points="22396,1715 23007,1715 23007,1959 24291,1959 24291,3426 24067,3426 24067,3671 23456,3671 23456,3426 22172,3426 22172,1959 22396,1959 "/>
  <polygon class="fil0 str0" points="22396,3426 23007,3426 23007,3671 24291,3671 24291,5138 24067,5138 24067,5382 23456,5382 23456,5138 22172,5138 22172,3671 22396,3671 "/>
  <polygon class="fil0 str0" points="22396,5138 23007,5138 23007,5382 24291,5382 24291,6849 24067,6849 24067,7094 23456,7094 23456,6849 22172,6849 22172,5382 22396,5382 "/>
  <polygon class="fil0 str0" points="20277,3 20888,3 20888,248 22172,248 22172,1715 21948,1715 21948,1959 21337,1959 21337,1715 20053,1715 20053,248 20277,248 "/>
  <polygon class="fil0 str0" points="20277,1715 20888,1715 20888,1959 22172,1959 22172,3426 21948,3426 21948,3671 21337,3671 21337,3426 20053,3426 20053,1959 20277,1959 "/>
  <polygon class="fil0 str0" points="20277,3426 20888,3426 20888,3671 22172,3671 22172,5138 21948,5138 21948,5382 21337,5382 21337,5138 20053,5138 20053,3671 20277,3671 "/>
  <polygon class="fil0 str0" points="20277,5138 20888,5138 20888,5382 22172,5382 22172,6849 21948,6849 21948,7094 21337,7094 21337,6849 20053,6849 20053,5382 20277,5382 "/>
  <polygon class="fil0 str0" points="24515,3 25127,3 25127,248 26410,248 26410,1715 26186,1715 26186,1959 25575,1959 25575,1715 24291,1715 24291,248 24515,248 "/>
  <polygon class="fil0 str0" points="24515,1715 25127,1715 25127,1959 26410,1959 26410,3426 26186,3426 26186,3671 25575,3671 25575,3426 24291,3426 24291,1959 24515,1959 "/>
  <polygon class="fil0 str0" points="24515,3426 25127,3426 25127,3671 26410,3671 26410,5138 26186,5138 26186,5382 25575,5382 25575,5138 24291,5138 24291,3671 24515,3671 "/>
  <polygon class="fil0 str0" points="24515,5138 25127,5138 25127,5382 26410,5382 26410,6849 26186,6849 26186,7094 25575,7094 25575,6849 24291,6849 24291,5382 24515,5382 "/>
  <polygon class="fil0 str0" points="20216,10028 18097,10028 18097,8153 18321,8153 18321,7909 18932,7909 18932,8153 20216,8153 "/>
  <polygon class="fil0 str0" points="20216,10028 18097,10028 18097,11903 18321,11903 18321,12147 18932,12147 18932,11903 20216,11903 "/>
  <polygon class="fil0 str0" points="22335,10028 20216,10028 20216,8153 20440,8153 20440,7909 21051,7909 21051,8153 22335,8153 "/>
  <polygon class="fil0 str0" points="22335,10028 20216,10028 20216,11903 20440,11903 20440,12147 21051,12147 21051,11903 22335,11903 "/>
  <polygon class="fil0 str0" points="24454,10028 22335,10028 22335,8153 22559,8153 22559,7909 23170,7909 23170,8153 24454,8153 "/>
  <polygon class="fil0 str0" points="24454,10028 22335,10028 22335,11903 22559,11903 22559,12147 23170,12147 23170,11903 24454,11903 "/>
  <polygon class="fil0 str0" points="26573,10028 24454,10028 24454,8153 24678,8153 24678,7909 25290,7909 25290,8153 26573,8153 "/>
  <g id="_2510190026624">
   <path class="fil1 str1" d="M405 3424c-4,0 -9,-1 -13,-3 -5,-2 -8,-4 -12,-7 -3,-3 -5,-7 -7,-11 -2,-5 -3,-9 -3,-14l0 -41c0,-5 1,-10 3,-14 2,-4 4,-8 7,-11 4,-3 7,-6 12,-8 4,-1 9,-2 13,-2l11 0c5,0 9,1 14,2 4,2 8,5 11,8 3,3 6,7 7,11 2,4 3,9 3,14l0 41c0,5 -1,9 -3,14 -1,4 -4,8 -7,11 -3,3 -7,5 -11,7 -5,2 -9,3 -14,3l-11 0zm-6 116c-4,0 -8,-1 -12,-3 -4,-1 -8,-4 -11,-7 -3,-2 -5,-6 -7,-10 -1,-4 -2,-8 -2,-13l0 -51c0,-4 1,-8 2,-12 2,-4 4,-8 7,-11 3,-3 7,-5 11,-7 4,-1 8,-2 12,-2l23 0c5,0 9,1 13,2 4,2 7,4 10,7 3,3 5,7 7,11 2,4 2,8 2,12l0 51c0,5 0,9 -2,13 -2,4 -4,8 -7,10 -3,3 -6,6 -10,7 -4,2 -8,3 -13,3l-23 0zm6 -116c-4,0 -9,-1 -13,-3 -5,-2 -8,-4 -12,-7 -3,-3 -5,-7 -7,-11 -2,-5 -3,-9 -3,-14l0 -41c0,-5 1,-10 3,-14 2,-4 4,-8 7,-11 4,-3 7,-6 12,-8 4,-1 9,-2 13,-2l11 0c5,0 9,1 14,2 4,2 8,5 11,8 3,3 6,7 7,11 2,4 3,9 3,14l0 41c0,5 -1,9 -3,14 -1,4 -4,8 -7,11 -3,3 -7,5 -11,7 -5,2 -9,3 -14,3l-11 0zm-6 116c-4,0 -8,-1 -12,-3 -4,-1 -8,-4 -11,-7 -3,-2 -5,-6 -7,-10 -1,-4 -2,-8 -2,-13l0 -51c0,-4 1,-8 2,-12 2,-4 4,-8 7,-11 3,-3 7,-5 11,-7 4,-1 8,-2 12,-2l23 0c5,0 9,1 13,2 4,2 7,4 10,7 3,3 5,7 7,11 2,4 2,8 2,12l0 51c0,5 0,9 -2,13 -2,4 -4,8 -7,10 -3,3 -6,6 -10,7 -4,2 -8,3 -13,3l-23 0z"/>
   <rect class="fil0 str0" x="6390" y="3650" width="245" height="611"/>
   <rect class="fil0 str0" x="11058" y="3650" width="245" height="611"/>
   <rect class="fil0 str0" x="4834" y="2591" width="245" height="611"/>
   <rect class="fil0 str0" x="15726" y="2591" width="245" height="611"/>
   <polygon class="fil0 str0" points="3784,4486 3784,4730 2969,4730 2969,4486 3,4486 3,2367 17689,2367 17689,4486 17116,4486 17116,4730 16301,4730 16301,4486 10842,4486 10842,4730 10027,4730 10027,4486 "/>
  </g>
  <g id="_2510190025664">
   <polygon class="fil0 str0" points="3,16548 17689,16548 17689,18667 17116,18667 17116,18912 16301,18912 16301,18667 10842,18667 10842,18912 10027,18912 10027,18667 5353,18667 5353,18912 4538,18912 4538,18667 3,18667 "/>
   <rect class="fil0 str0" x="7946" y="17832" width="245" height="611"/>
   <rect class="fil0 str0" x="11058" y="17832" width="245" height="611"/>
   <rect class="fil0 str0" x="9502" y="16772" width="245" height="611"/>
   <path class="fil1 str1" d="M364 17722l76 -135c4,-7 7,-15 9,-23 2,-9 3,-17 3,-25l0 -17c0,-8 -3,-14 -8,-20 -6,-5 -12,-8 -20,-8l-23 0c-7,0 -14,3 -19,8 -5,6 -8,12 -8,20l0 22 0 -22c0,-8 3,-14 8,-20 5,-5 12,-8 19,-8l23 0c8,0 14,3 20,8 5,6 8,12 8,20l0 17c0,8 -1,16 -3,25 -2,8 -5,16 -9,23l-76 135 93 0 -93 0z"/>
  </g>
  <g id="_2510190027328">
   <path class="fil1 str1" d="M454 1041c0,5 -1,10 -3,15 -2,4 -4,8 -8,12 -3,3 -7,6 -12,8 -4,2 -9,3 -14,3l-12 0c-5,0 -10,-1 -15,-3 -4,-2 -8,-5 -12,-8 -3,-4 -6,-8 -8,-12 -2,-5 -3,-10 -3,-15l0 -55c0,-5 1,-10 3,-14 2,-5 5,-9 8,-12 4,-4 8,-6 12,-8 5,-2 10,-3 15,-3l12 0c5,0 9,1 14,3 5,2 9,4 12,8 3,3 6,7 8,12 2,4 3,9 3,14l0 153c0,5 -1,10 -3,15 -2,4 -4,8 -8,11 -3,4 -7,7 -12,9 -4,2 -9,3 -14,3l-12 0c-5,0 -10,-1 -15,-3 -4,-2 -8,-5 -12,-9 -3,-3 -6,-7 -8,-11 -2,-5 -3,-10 -3,-15l0 -15 0 15c0,5 1,10 3,15 2,4 5,8 8,11 4,4 8,7 12,9 5,2 10,3 15,3l12 0c5,0 10,-1 14,-3 5,-2 9,-5 12,-9 4,-3 6,-7 8,-11 2,-5 3,-10 3,-15l0 -153c0,-5 -1,-10 -3,-14 -2,-5 -5,-9 -8,-12 -3,-4 -7,-6 -12,-8 -5,-2 -9,-3 -14,-3l-12 0c-5,0 -10,1 -15,3 -4,2 -8,4 -12,8 -3,3 -6,7 -8,12 -2,4 -3,9 -3,14l0 55c0,5 1,10 3,15 2,4 5,8 8,12 4,3 8,6 12,8 5,2 10,3 15,3l12 0c5,0 10,-1 14,-3 5,-2 9,-5 12,-8 4,-4 6,-8 8,-12 2,-5 3,-10 3,-15z"/>
   <polygon class="fil0 str0" points="3,3 17689,3 17689,2122 17116,2122 17116,2367 16301,2367 16301,2122 10842,2122 10842,2367 10027,2367 10027,2122 4568,2122 4568,2367 3753,2367 3753,2122 3,2122 "/>
   <rect class="fil0 str0" x="3278" y="1287" width="245" height="611"/>
   <rect class="fil0 str0" x="4834" y="1287" width="245" height="611"/>
   <rect class="fil0 str0" x="9502" y="1287" width="245" height="611"/>
   <rect class="fil0 str0" x="11058" y="1287" width="245" height="611"/>
   <rect class="fil0 str0" x="6390" y="227" width="245" height="611"/>
   <rect class="fil0 str0" x="11058" y="227" width="245" height="611"/>
  </g>
  <g id="_2510190029792">
   <polygon class="fil0 str0" points="3,18912 17689,18912 17689,21031 17116,21031 17116,21276 16301,21276 16301,21031 10842,21031 10842,21276 10027,21276 10027,21031 3377,21031 3377,21276 2562,21276 2562,21031 3,21031 "/>
   <rect class="fil0 str0" x="9502" y="20196" width="245" height="611"/>
   <rect class="fil0 str0" x="6390" y="19136" width="245" height="611"/>
   <rect class="fil0 str0" x="11058" y="19136" width="245" height="611"/>
   <rect class="fil0 str0" x="12614" y="19136" width="245" height="611"/>
   <polygon class="fil1 str1" points="425,19858 425,20085 425,19858 396,19889 "/>
  </g>
  <g id="_2510189999552">
   <polygon class="fil0 str0" points="3,9458 17689,9458 17689,11577 17116,11577 17116,11821 16301,11821 16301,11577 10842,11577 10842,11821 10027,11821 10027,11577 9584,11577 9584,11006 7995,11006 7995,11577 4945,11577 4945,11821 4130,11821 4130,11577 3,11577 "/>
   <rect class="fil0 str0" x="11058" y="10741" width="245" height="611"/>
   <rect class="fil0 str0" x="6390" y="10741" width="245" height="611"/>
   <rect class="fil0 str0" x="6390" y="9682" width="245" height="611"/>
   <rect class="fil0 str0" x="11058" y="9682" width="245" height="611"/>
   <path class="fil1 str1" d="M367 10594c0,4 1,9 3,13 2,5 5,8 8,12 3,3 7,6 11,8 5,3 10,4 15,4l14 0c5,0 9,-1 14,-3 4,-2 8,-5 11,-8 4,-3 6,-7 8,-12 2,-4 3,-9 3,-14l0 -61c0,-5 -1,-9 -3,-14 -2,-4 -4,-8 -8,-11 -3,-4 -7,-6 -11,-8 -5,-2 -9,-3 -14,-3l-14 0c-5,0 -10,1 -14,3 -4,2 -7,4 -10,8 -2,3 -5,7 -6,11 -1,5 -2,9 -2,14l0 -130 76 0 -76 0 0 130c0,-5 1,-9 2,-14 1,-4 4,-8 6,-11 3,-4 6,-6 10,-8 4,-2 9,-3 14,-3l14 0c5,0 9,1 14,3 4,2 8,4 11,8 4,3 6,7 8,11 2,5 3,9 3,14l0 61c0,5 -1,10 -3,14 -2,5 -4,9 -8,12 -3,3 -7,6 -11,8 -5,2 -9,3 -14,3l-14 0c-5,0 -10,-1 -15,-4 -4,-2 -8,-5 -11,-8 -3,-4 -6,-7 -8,-12 -2,-4 -3,-9 -3,-13l0 -10 0 10z"/>
  </g>
  <g id="_2510190001216">
   <polygon class="fil1 str1" points="435,12767 352,12931 469,12931 352,12931 435,12767 435,12994 "/>
   <polygon class="fil0 str0" points="3,11821 17689,11821 17689,13940 17116,13940 17116,14185 16301,14185 16301,13940 10842,13940 10842,14185 10027,14185 10027,13940 4945,13940 4945,14185 4130,14185 4130,13940 3,13940 "/>
   <rect class="fil0 str0" x="6390" y="13105" width="245" height="611"/>
   <rect class="fil0 str0" x="6390" y="12045" width="245" height="611"/>
   <rect class="fil0 str0" x="11058" y="13105" width="245" height="611"/>
   <rect class="fil0 str0" x="11058" y="12045" width="245" height="611"/>
  </g>
  <g id="_2510190002432">
   <polygon class="fil0 str0" points="3,7094 17689,7094 17689,9213 17116,9213 17116,9458 16301,9458 16301,9213 10842,9213 10842,9458 10027,9458 10027,9213 4130,9213 4130,9458 3315,9458 3315,9213 3,9213 "/>
   <rect class="fil0 str0" x="1722" y="8378" width="245" height="611"/>
   <rect class="fil0 str0" x="6390" y="8378" width="245" height="611"/>
   <rect class="fil0 str0" x="11058" y="8378" width="245" height="611"/>
   <rect class="fil0 str0" x="6390" y="7318" width="245" height="611"/>
   <rect class="fil0 str0" x="11058" y="7318" width="245" height="611"/>
   <path class="fil1 str1" d="M367 8174c0,-5 1,-10 3,-14 2,-5 5,-9 8,-12 4,-3 8,-6 12,-8 5,-2 10,-3 15,-3l12 0c5,0 9,1 14,3 5,2 9,5 12,8 3,3 6,7 8,12 2,4 3,9 3,14l0 56c0,5 -1,9 -3,14 -2,5 -5,9 -8,12 -3,3 -7,6 -12,8 -5,2 -9,3 -14,3l-12 0c-5,0 -10,-1 -15,-3 -4,-2 -8,-5 -12,-8 -3,-4 -6,-8 -8,-12 -2,-5 -3,-9 -3,-14l0 -153c0,-5 1,-10 3,-15 2,-4 5,-8 8,-11 4,-4 8,-7 12,-8 5,-2 10,-3 15,-3l12 0c5,0 9,1 14,3 5,1 9,4 12,8 3,3 6,7 8,11 2,5 3,10 3,15l0 15 0 -15c0,-5 -1,-10 -3,-15 -2,-4 -5,-8 -8,-11 -3,-4 -7,-7 -12,-8 -5,-2 -9,-3 -14,-3l-12 0c-5,0 -10,1 -15,3 -4,1 -8,4 -12,8 -3,3 -6,7 -8,11 -2,5 -3,10 -3,15l0 153c0,5 1,9 3,14 2,4 5,8 8,12 4,3 8,6 12,8 5,2 10,3 15,3l12 0c5,0 9,-1 14,-3 5,-2 9,-5 12,-8 3,-3 6,-7 8,-12 2,-5 3,-9 3,-14l0 -56c0,-5 -1,-10 -3,-14 -2,-5 -5,-9 -8,-12 -3,-3 -7,-6 -12,-8 -5,-2 -9,-3 -14,-3l-12 0c-5,0 -10,1 -15,3 -4,2 -8,5 -12,8 -3,3 -6,7 -8,12 -2,4 -3,9 -3,14z"/>
  </g>
  <g id="_2510190004992">
   <path class="fil1 str1" d="M367 15324c0,4 1,9 3,13 2,4 4,8 7,11 3,3 7,5 11,7 4,2 9,3 14,3l17 0c5,0 10,-1 14,-3 4,-1 8,-4 11,-7 3,-3 5,-7 7,-11 2,-4 3,-9 3,-13l0 -49c0,-4 -1,-9 -3,-13 -2,-4 -4,-8 -8,-11 -3,-3 -7,-6 -11,-8 -4,-2 -8,-3 -13,-3l-17 0 17 0c5,0 9,-1 13,-3 4,-2 8,-4 11,-7 4,-3 6,-7 8,-11 2,-4 3,-9 3,-13l0 -41c0,-4 -1,-9 -3,-13 -2,-4 -4,-8 -7,-11 -3,-3 -7,-6 -11,-8 -4,-2 -9,-3 -14,-3l-17 0c-5,0 -10,1 -14,3 -4,2 -8,5 -11,8 -3,3 -5,7 -7,11 -2,4 -3,9 -3,13l0 17 0 -17c0,-4 1,-9 3,-13 2,-4 4,-8 7,-11 3,-3 7,-6 11,-8 4,-2 9,-3 14,-3l17 0c5,0 10,1 14,3 4,2 8,5 11,8 3,3 5,7 7,11 2,4 3,9 3,13l0 41c0,4 -1,9 -3,13 -2,4 -4,8 -8,11 -3,3 -7,5 -11,7 -4,2 -8,3 -13,3l-17 0 17 0c5,0 9,1 13,3 4,2 8,5 11,8 4,3 6,7 8,11 2,4 3,9 3,13l0 49c0,4 -1,9 -3,13 -2,4 -4,8 -7,11 -3,3 -7,6 -11,7 -4,2 -9,3 -14,3l-17 0c-5,0 -10,-1 -14,-3 -4,-2 -8,-4 -11,-7 -3,-3 -5,-7 -7,-11 -2,-4 -3,-9 -3,-13l0 -13 0 13z"/>
   <polygon class="fil0 str0" points="3,14185 17689,14185 17689,16304 17116,16304 17116,16548 16301,16548 16301,16304 10842,16304 10842,16548 10027,16548 10027,16304 5149,16304 5149,16548 4334,16548 4334,16304 3,16304 "/>
   <rect class="fil0 str0" x="6390" y="15468" width="245" height="611"/>
   <rect class="fil0 str0" x="11058" y="15468" width="245" height="611"/>
   <rect class="fil0 str0" x="11058" y="14409" width="245" height="611"/>
   <rect class="fil0 str0" x="7946" y="14409" width="245" height="611"/>
  </g>
  <g id="_2510190007520">
   <polygon class="fil0 str0" points="3,4730 17689,4730 17689,6849 17116,6849 17116,7094 16301,7094 16301,6849 10842,6849 10842,7094 10027,7094 10027,6849 4741,6849 4741,7094 3926,7094 3926,6849 3,6849 "/>
   <rect class="fil0 str0" x="4834" y="6014" width="245" height="611"/>
   <rect class="fil0 str0" x="15726" y="6014" width="245" height="611"/>
   <rect class="fil0 str0" x="1722" y="4954" width="245" height="611"/>
   <rect class="fil0 str0" x="6390" y="4954" width="245" height="611"/>
   <rect class="fil0 str0" x="11058" y="4954" width="245" height="611"/>
   <polygon class="fil1 str1" points="455,5676 366,5676 455,5676 384,5904 "/>
  </g>
 </g>
</svg>
